<mxfile host="app.diagrams.net" agent="Mozilla/5.0 (Windows NT 10.0; Win64; x64) AppleWebKit/537.36 (KHTML, like Gecko) Chrome/126.0.0.0 Safari/537.36" version="24.7.4">
  <diagram name="第 1 页" id="-wQB_hhAn3nWipNW0Ju6">
    <mxGraphModel dx="1025" dy="993" grid="1" gridSize="10" guides="1" tooltips="1" connect="1" arrows="1" fold="1" page="1" pageScale="1" pageWidth="827" pageHeight="1169" math="0" shadow="0">
      <root>
        <mxCell id="0" />
        <mxCell id="1" parent="0" />
        <mxCell id="JphXUqdfm_v7-vcjVdjx-4" value="" style="edgeStyle=orthogonalEdgeStyle;rounded=0;orthogonalLoop=1;jettySize=auto;html=1;" edge="1" parent="1" source="JphXUqdfm_v7-vcjVdjx-1" target="JphXUqdfm_v7-vcjVdjx-3">
          <mxGeometry relative="1" as="geometry" />
        </mxCell>
        <mxCell id="JphXUqdfm_v7-vcjVdjx-1" value="创建复杂多边形" style="whiteSpace=wrap;html=1;" vertex="1" parent="1">
          <mxGeometry x="90" y="410" width="120" height="60" as="geometry" />
        </mxCell>
        <mxCell id="JphXUqdfm_v7-vcjVdjx-6" value="" style="edgeStyle=orthogonalEdgeStyle;rounded=0;orthogonalLoop=1;jettySize=auto;html=1;" edge="1" parent="1" source="JphXUqdfm_v7-vcjVdjx-3" target="JphXUqdfm_v7-vcjVdjx-5">
          <mxGeometry relative="1" as="geometry" />
        </mxCell>
        <mxCell id="JphXUqdfm_v7-vcjVdjx-3" value="dialog：填写区域名称" style="whiteSpace=wrap;html=1;" vertex="1" parent="1">
          <mxGeometry x="290" y="410" width="120" height="60" as="geometry" />
        </mxCell>
        <mxCell id="JphXUqdfm_v7-vcjVdjx-5" value="创建ScheReqZone&lt;br&gt;元素" style="whiteSpace=wrap;html=1;" vertex="1" parent="1">
          <mxGeometry x="490" y="410" width="120" height="60" as="geometry" />
        </mxCell>
      </root>
    </mxGraphModel>
  </diagram>
</mxfile>
